<svg width="512" height="512" viewBox="0 0 512 512" fill="none" xmlns="http://www.w3.org/2000/svg">
<circle cx="256" cy="256" r="256" fill="#5C5C5C"/>
<path fill-rule="evenodd" clip-rule="evenodd" d="M486.761 178.025C486.755 178.011 486.751 177.996 486.746 177.981C486.242 176.381 485.722 174.789 485.187 173.204L397.981 261.618L372.751 236.038L469.907 137.535C469.882 137.486 469.857 137.438 469.83 137.39C469.124 136.046 468.404 134.71 467.674 133.381L369.586 232.83L344.354 207.25L447.597 102.576C447.542 102.504 447.488 102.433 447.433 102.362C446.567 101.23 445.69 100.105 444.805 98.9893L341.19 204.041L315.959 178.462L420.446 72.5252C420.359 72.4438 420.273 72.3625 420.185 72.2812C419.175 71.3356 418.155 70.3987 417.129 69.4705L312.794 175.253L287.564 149.672L388.569 47.2657C388.505 47.2231 388.441 47.1805 388.377 47.138C387.164 46.3335 385.943 45.5397 384.714 44.7568L284.398 146.464L259.164 120.881L351.632 27.1322C351.632 27.1322 351.631 27.1312 351.629 27.1306C350.174 26.4959 348.711 25.8752 347.242 25.2687C347.217 25.2589 347.194 25.2491 347.17 25.2393L255.999 117.671L164.829 25.2396C164.703 25.2915 164.578 25.3435 164.452 25.3955C163.084 25.9623 161.722 26.5414 160.366 27.1326L252.835 120.881L227.601 146.464L127.285 44.7573C127.19 44.8181 127.094 44.8789 126.999 44.9397C125.802 45.7049 124.612 46.4805 123.429 47.2662L224.435 149.672L199.204 175.253L94.8702 69.4711C94.8379 69.5003 94.8058 69.5294 94.7735 69.5586C93.6914 70.5381 92.6179 71.5272 91.5533 72.5258L196.04 178.462L170.809 204.041L67.1949 98.99C67.1451 99.0528 67.0953 99.1157 67.0456 99.1785C66.1549 100.303 65.2738 101.436 64.4025 102.577L167.644 207.25L142.413 232.83L44.3258 133.382C44.3079 133.415 44.29 133.447 44.2721 133.479C43.5335 134.823 42.807 136.176 42.0927 137.536L139.248 236.039L114.018 261.618L26.8131 173.205C26.7988 173.247 26.7844 173.289 26.7701 173.332C26.2548 174.86 25.7539 176.396 25.2677 177.937C25.2583 177.967 25.2489 177.996 25.2395 178.026L110.853 264.827L31.5489 345.228C31.5547 345.243 31.5605 345.257 31.5662 345.272C32.1686 346.773 32.7852 348.267 33.4159 349.753L114.018 268.036L139.254 293.622L50.8021 383.3C50.8621 383.397 50.9223 383.494 50.9825 383.59C51.737 384.804 52.5018 386.01 53.2767 387.209L142.418 296.831L167.649 322.411L75.1777 416.165C75.2066 416.197 75.2356 416.23 75.2646 416.263C76.2304 417.36 77.2058 418.448 78.1907 419.527L170.814 325.62L196.044 351.2L104.293 444.224C104.355 444.274 104.417 444.325 104.479 444.376C105.588 445.278 106.705 446.172 107.83 447.055L199.209 354.408L224.439 379.988L138.214 467.41C138.247 467.428 138.278 467.447 138.311 467.465C139.637 468.214 140.97 468.95 142.311 469.674L227.604 383.197L252.835 408.778L177.491 485.166C177.534 485.18 177.576 485.195 177.618 485.21C179.154 485.742 180.698 486.259 182.248 486.761L255.999 411.987L329.752 486.761C329.766 486.756 329.78 486.752 329.796 486.747C331.373 486.235 332.944 485.709 334.507 485.166L259.164 408.778L284.395 383.197L369.689 469.675C369.736 469.649 369.784 469.623 369.832 469.596C371.157 468.88 372.475 468.151 373.785 467.41L287.559 379.988L312.79 354.408L404.169 447.055C404.239 447 404.311 446.944 404.381 446.888C405.498 446.01 406.606 445.121 407.706 444.224L315.955 351.2L341.185 325.62L433.808 419.528C433.889 419.439 433.97 419.351 434.05 419.263C434.983 418.239 435.907 417.206 436.822 416.165L344.35 322.411L369.58 296.831L458.723 387.21C458.765 387.145 458.807 387.079 458.849 387.014C459.643 385.783 460.425 384.546 461.198 383.301L372.745 293.622L397.981 268.036L478.584 349.754C478.632 349.641 478.68 349.526 478.728 349.413C479.315 348.024 479.889 346.63 480.451 345.229L401.146 264.827L486.761 178.025ZM117.183 264.827L142.418 290.413L167.649 264.833L142.413 239.247L117.183 264.827ZM145.579 236.039L170.814 261.624L196.044 236.043L170.809 210.459L145.579 236.039ZM173.974 207.25L199.209 232.834L224.439 207.254L199.204 181.67L173.974 207.25ZM202.369 178.462L227.604 204.046L252.835 178.466L227.601 152.881L202.369 178.462ZM230.765 149.672L255.999 175.257L281.233 149.672L255.999 124.09L230.765 149.672ZM369.586 239.247L394.816 264.827L369.58 290.413L344.35 264.833L369.586 239.247ZM341.19 210.459L366.42 236.039L341.185 261.624L315.955 236.043L341.19 210.459ZM312.794 181.67L338.025 207.25L312.79 232.834L287.559 207.254L312.794 181.67ZM284.398 152.881L309.63 178.462L284.395 204.046L259.164 178.466L284.398 152.881ZM255.999 181.674L230.769 207.254L255.999 232.834L281.23 207.254L255.999 181.674ZM227.604 210.463L202.374 236.043L227.604 261.624L252.835 236.043L227.604 210.463ZM199.209 239.252L173.978 264.833L199.209 290.413L224.439 264.833L199.209 239.252ZM170.814 268.042L145.583 293.622L170.814 319.202L196.044 293.622L170.814 268.042ZM341.185 268.042L366.415 293.622L341.185 319.202L315.955 293.622L341.185 268.042ZM312.79 239.252L338.02 264.833L312.79 290.413L287.559 264.833L312.79 239.252ZM284.395 210.463L309.625 236.043L284.395 261.624L259.164 236.043L284.395 210.463ZM173.978 322.411L199.209 347.991L224.439 322.411L199.209 296.831L173.978 322.411ZM202.374 293.622L227.604 319.202L252.835 293.622L227.604 268.042L202.374 293.622ZM230.769 264.833L255.999 290.413L281.23 264.833L255.999 239.252L230.769 264.833ZM312.79 347.991L338.02 322.411L312.79 296.831L287.559 322.411L312.79 347.991ZM284.395 268.042L309.625 293.622L284.395 319.202L259.164 293.622L284.395 268.042ZM255.999 296.831L230.769 322.411L255.999 347.991L281.23 322.411L255.999 296.831ZM227.604 325.62L202.374 351.2L227.604 376.78L252.835 351.2L227.604 325.62ZM284.395 325.62L309.625 351.2L284.395 376.78L259.164 351.2L284.395 325.62ZM255.999 354.408L230.769 379.988L255.999 405.569L281.23 379.988L255.999 354.408Z" fill="#E5E5E5"/>
</svg>
