<svg width="145" height="146" viewBox="0 0 145 146" fill="none" xmlns="http://www.w3.org/2000/svg">
<path fill-rule="evenodd" clip-rule="evenodd" d="M117.106 77.4878L111.713 82.9029L138.86 110.161C138.019 111.662 137.128 113.131 136.191 114.567L108.185 86.4456L102.792 91.8607L131.64 120.827C130.589 122.128 129.496 123.395 128.364 124.623L99.2635 95.4035L93.8706 100.819L122.911 129.979C121.661 131.09 120.374 132.161 119.052 133.189L90.3423 104.361L84.9495 109.776L112.693 137.634C111.234 138.547 109.742 139.412 108.219 140.227L81.4212 113.319L76.0283 118.734L100.86 143.668C99.1597 144.353 97.4293 144.98 95.6713 145.543L72.5 122.277L49.3288 145.543C47.5707 144.98 45.8403 144.354 44.1404 143.668L68.9717 118.734L63.5788 113.319L36.7814 140.227C35.2583 139.412 33.7661 138.547 32.3069 137.634L60.0506 109.776L54.6577 104.361L25.9483 133.189C24.6264 132.161 23.3392 131.09 22.0887 129.979L51.1294 100.819L45.7365 95.4035L16.6362 124.623C15.5039 123.395 14.4113 122.128 13.3605 120.827L42.2082 91.8607L36.8153 86.4456L8.80868 114.567C7.87164 113.131 6.98146 111.662 6.14032 110.161L33.287 82.9029L27.8941 77.4878L2.57011 102.916C1.85389 101.244 1.19538 99.542 0.59709 97.8115L24.3659 73.945L0 49.479C0.56142 47.7137 1.18502 45.9763 1.8682 44.2694L27.8941 70.4022L33.287 64.9872L5.29496 36.8801C6.10613 35.3508 6.96757 33.8524 7.87705 32.3873L36.8153 61.4444L42.2082 56.0294L12.3042 26.0026C13.3279 24.6753 14.3943 23.3827 15.5011 22.127L45.7365 52.4866L51.1294 47.0715L20.8345 16.6521C22.0582 15.5152 23.3191 14.4181 24.6153 13.363L54.6577 43.5288L60.0506 38.1137L30.8493 8.7925C32.2793 7.85161 33.7428 6.95778 35.2375 6.11318L63.5788 34.5709L68.9717 29.1559L42.4531 2.5283C44.1178 1.80915 45.8131 1.14793 47.5366 0.54718L72.5 25.6131L97.4634 0.547193C99.1869 1.14794 100.882 1.80916 102.547 2.52832L76.0283 29.1559L81.4212 34.5709L109.762 6.1132C111.257 6.9578 112.721 7.85163 114.151 8.79252L84.9495 38.1137L90.3424 43.5288L120.385 13.363C121.681 14.4182 122.942 15.5152 124.166 16.6522L93.8706 47.0715L99.2636 52.4866L129.499 22.1271C130.606 23.3828 131.672 24.6753 132.696 26.0026L102.792 56.0294L108.185 61.4444L137.123 32.3873C138.032 33.8525 138.894 35.3508 139.705 36.8801L111.713 64.9872L117.106 70.4022L143.132 44.2694C143.815 45.9763 144.439 47.7138 145 49.4791L120.634 73.945L144.403 97.8114C143.805 99.542 143.146 101.244 142.43 102.916L117.106 77.4878ZM36.8153 79.3601L31.4224 73.945L36.8153 68.53L42.2082 73.945L36.8153 79.3601ZM45.7365 70.4023L40.3436 64.9872L45.7365 59.5722L51.1294 64.9872L45.7365 70.4023ZM54.6576 61.4445L49.2647 56.0294L54.6577 50.6143L60.0506 56.0294L54.6576 61.4445ZM63.5788 52.4866L58.1859 47.0715L63.5788 41.6565L68.9717 47.0715L63.5788 52.4866ZM72.5 43.5288L67.1071 38.1137L72.5 32.6987L77.8929 38.1137L72.5 43.5288ZM113.578 73.945L108.185 79.3601L102.792 73.945L108.185 68.53L113.578 73.945ZM104.656 64.9872L99.2636 59.5722L93.8707 64.9872L99.2635 70.4022L104.656 64.9872ZM95.7353 56.0294L90.3424 50.6143L84.9495 56.0294L90.3424 61.4445L95.7353 56.0294ZM86.8141 47.0715L81.4212 41.6565L76.0283 47.0715L81.4212 52.4866L86.8141 47.0715ZM67.1071 56.0294L72.5 50.6143L77.8929 56.0294L72.5 61.4444L67.1071 56.0294ZM58.1859 64.9872L63.5788 59.5721L68.9717 64.9872L63.5788 70.4023L58.1859 64.9872ZM49.2648 73.945L54.6576 68.53L60.0505 73.9451L54.6577 79.3601L49.2648 73.945ZM40.3436 82.9029L45.7365 77.4878L51.1294 82.9029L45.7365 88.3179L40.3436 82.9029ZM104.656 82.9028L99.2635 77.4878L93.8706 82.9028L99.2635 88.3179L104.656 82.9028ZM95.7352 73.945L90.3424 68.53L84.9495 73.9451L90.3424 79.3601L95.7352 73.945ZM86.8141 64.9872L81.4212 59.5721L76.0283 64.9872L81.4212 70.4023L86.8141 64.9872ZM54.6577 97.2758L49.2648 91.8607L54.6577 86.4456L60.0506 91.8607L54.6577 97.2758ZM63.5789 88.3179L58.1859 82.9029L63.5788 77.4878L68.9717 82.9029L63.5789 88.3179ZM72.5 79.3601L67.1071 73.945L72.5 68.53L77.8929 73.9451L72.5 79.3601ZM95.7352 91.8607L90.3423 97.2758L84.9494 91.8607L90.3424 86.4456L95.7352 91.8607ZM86.8141 82.9029L81.4212 77.4878L76.0283 82.9029L81.4212 88.3179L86.8141 82.9029ZM67.1071 91.8607L72.5 86.4457L77.8929 91.8607L72.5 97.2757L67.1071 91.8607ZM58.186 100.819L63.5789 95.4035L68.9717 100.819L63.5788 106.234L58.186 100.819ZM86.814 100.819L81.4211 95.4035L76.0283 100.819L81.4212 106.234L86.814 100.819ZM67.1071 109.776L72.5 104.361L77.8929 109.776L72.5 115.191L67.1071 109.776Z" fill="#E5E5E5"/>
</svg>
